<svg xmlns="http://www.w3.org/2000/svg" width="331" height="142" fill="#FFFABE" xmlns:v="https://vecta.io/nano"><path d="M19.94 85.33c-17.24 0-18.87 15.17-18.87 19.9 0 16.21 8.51 21.54 19.61 21.54 6.74 0 14.58-3.11 17.32-12.58H27.34c-.81 2.81-3.77 4.29-6.66 4.29-8.36 0-9-6.66-9.25-9.62h27v-1.88c.01-17.95-10.7-21.65-18.49-21.65zm-8.21 16.79c.59-5.18 3.18-8.28 8.06-8.28 3.33 0 7.4 1.92 8 8.28H11.73zM55.6 75.7H45.24v10.66h-5.33v7.4h5.33v23.9c0 5.11 1.63 8.52 10.58 8.52h1.34c1.62 0 3.25-.08 4.88-.15v-7.85a20.61 20.61 0 0 1-2.15.15c-4.21 0-4.29-.89-4.29-3.18V93.76h6.44v-7.4H55.6V75.7zm33.84 9.63c-5.62 0-10.06 2.88-11.4 6.14h-.14V72.6H67.54v53.13H77.9v-22.57c0-6 3.55-9.1 8.14-9.1 6.58 0 6.73 4.88 6.73 7.77v23.9h10.36V98.5c0-8.66-5.99-13.17-13.69-13.17zm32.08 1.03h-10.36v39.37h10.36V86.36zm0-14.28h-10.36v9.62h10.36v-9.62zm34.55 20.13h-.15c-1.48-2.59-4.29-6.88-11-6.88-12.22 0-17.25 10.58-17.25 21.53 0 8.36 4.3 19.91 16.65 19.91 5.18 0 9-1.93 11.18-5.92h.15v20.2h10.36V86.36h-9.92l-.02 5.85zm-8.88 25.83c-6.14 0-8.88-4.22-8.88-11.25 0-10 4.66-12.51 8.66-12.51 2.14 0 8.88 1.11 8.88 12 0 8.05-3.78 11.76-8.66 11.76zm51.6-8.96c0 7-4.59 9-8 9-3.18 0-6.74-1.19-6.74-7.26V86.4h-10.32v25.9c0 10.07 5.63 14.51 13.4 14.51 5.47 0 9.62-2.37 12-6.59h.14v5.55h9.92V86.4h-10.4v22.68zm34.94-23.75c-17.25 0-18.87 15.17-18.87 19.9 0 16.21 8.51 21.54 19.61 21.54 6.73 0 14.58-3.11 17.32-12.58h-10.7c-.82 2.81-3.78 4.29-6.66 4.29-8.36 0-9-6.66-9.25-9.62h27v-1.88c.01-17.95-10.72-21.65-18.45-21.65zm-8.22 16.79c.6-5.18 3.19-8.28 8.07-8.28 3.33 0 7.4 1.92 8 8.28h-16.07zm41.37-5.14c0-1.7.74-3.85 6.37-3.85s6.51 2.66 7 5.18h10.14c-.81-11.1-10-13-17.68-13-12.29 0-15.92 7.4-15.92 13.17 0 14.72 24.43 9.77 24.43 16.35 0 1.48-1.26 4.07-6.59 4.07-6.51 0-8.58-2.44-8.58-5.77h-10.71c.3 10.51 10 13.62 18.94 13.62 6.15 0 17.25-2.07 17.25-13.55 0-14.48-24.65-9.97-24.65-16.22zM22.83 24.81c-6.88 0-9.25 5.92-9.25 12.21 0 6 2.74 12.29 9.25 12.29 7 0 9-6.07 9-12.36s-2.19-12.14-9-12.14zm0 21.5c-6.08 0-6.25-8.34-6.25-9.29 0-4.2 1.08-9.21 6.25-9.21 4 0 6 3.08 6 9.14.03 9.36-4.51 9.36-6 9.36zm8.85 22.06l-23 11.7h23v-11.7zm32.88-43.56c-6.66 0-8.58 5.18-8.73 8.14h17.1c-.97-5.33-3.26-8.14-8.37-8.14zm-4.72 5.14a5.32 5.32 0 0 1 4.72-2.14c2 0 3.35.4 4.31 2.14h-9.03z"/><path d="M322.09 32.1h7.64l-.28-3.26c-.83-9.64-7.89-15-19.86-15-7.88 0-13.63 2.22-16.81 6.3v-5.09l-2-.68a10.83 10.83 0 0 0-3.24-.53 16.41 16.41 0 0 0-9.36 3v-2h-16v13.25a22.48 22.48 0 0 0-4.75-8 20.37 20.37 0 0 0-6.982-4.773 20.38 20.38 0 0 0-8.318-1.527c-9.65 0-17.34 5.33-20.7 13.54-1-6.8-4.58-13.54-16.65-13.54a17 17 0 0 0-8.92 2.48v-1.29h-29.88v1a17 17 0 0 0-8.54-2c-8.33 0-14.81 4.8-17.73 12.38V3.44H123.2v23.54c-1.55-8.44-8.44-13.07-19.6-13.07s-18.12 4.5-19.41 12.45c-.983-2.258-2.334-4.336-4-6.15a20.41 20.41 0 0 0-15.31-6.3c-8.92 0-16.16 4.55-19.86 11.72V.37H28.49v15.61a17.62 17.62 0 0 0-8.47-2.09c-11.75 0-20 9.39-20 22.84 0 13.83 8.29 23.5 20.17 23.5a18 18 0 0 0 8.77-2.1v1.06h16V48.88c3.63 7.06 10.72 11.35 19.86 11.35 8.89 0 15.43-3.81 19.13-11.05 2.44 7.08 9.48 11.05 20.05 11.05 9.73 0 16.47-3.53 19.16-9.7v8.66h16.14c1 9.95 10.84 14.5 19.8 14.5 15.51 0 20.72-7.61 22.26-14.5h14.91V36.13c0-8 2.73-8 5.14-8 1.75 0 3.73 0 3.73 6.4v24.61h16.59V47.76c3.45 7.69 10.78 12.42 20.37 12.42s16.56-4.5 20.05-13v12h16.5v-20.2c0-9.29 5.35-9.29 7.37-9.29a17.12 17.12 0 0 1 3.1.29l.87.21c.45 6.32 5.2 9.29 9.48 10.81h-10.59l.14 3.13c.45 10.25 8.1 16.13 21 16.13s20.47-6.11 20.47-16.33c-.02-6.7-4.25-10.04-8.4-11.83zM42 56.19H32v-4.88h-.15c-2.44 4.14-6.74 5.92-11.62 5.92-11.55 0-17.17-9.92-17.17-20.5 0-10.29 5.7-19.84 17-19.84 4.51 0 8.95 1.93 11.32 5.7h.15V3.35H42v52.84zm41.43-16.58h-27.6c.3 6.66 3.55 9.7 9.4 9.7 4.22 0 7.62-2.59 8.29-5h9.21c-3 9-9.25 12.88-17.91 12.88-12.06 0-19.54-8.29-19.54-20.13 0-11.47 7.92-20.21 19.54-20.21 13.06.04 19.35 11 18.61 22.76zm-12.54 3l-.26.93c-.26.94-2.41 2.77-5.4 2.77s-5-.71-5.92-3.7h11.58zm15.54-2.81a26.43 26.43 0 0 0 0-3.33 16 16 0 0 0 7 4.5h-7.12l.12-1.17zm17.61 17.43c-8.88 0-17.54-3.12-18-13.26h10c.07 4.59 3.92 6.22 8.06 6.22 3 0 6.89-1.18 6.89-4.88 0-3.18-4.37-4.29-11.92-5.92-6.07-1.33-12.14-3.48-12.14-10.21 0-9.77 8.44-12.29 16.66-12.29s16 2.82 16.87 12.21h-10c-.3-4.07-3.41-5.18-7.18-5.18-2.37 0-5.85.45-5.85 3.56 0 3.77 5.92 4.29 11.92 5.69s12.13 3.63 12.13 10.73c.02 10.08-8.75 13.33-17.44 13.33zm-5-14.78c3.2.69 8.35 1.85 9 2.86 0 1.86-3.73 1.88-3.89 1.88-5 0-5-2.46-5.06-3.27l-.05-1.47zm8.49-12.76l-.41-.08c-2.29-.49-6.13-1.3-6.65-2.13a.18.18 0 0 1 0-.08 5.51 5.51 0 0 1 2.84-.48c4 0 4.11 1.33 4.19 2.4l.03.37zm15.69 8.5a13.74 13.74 0 0 0-7.08-6.09h7.08v6.09zm13.51 18H126.2V17.98h10.53v38.21zm0-41.18H126.2V6.35h10.53v8.66zm3 31.09a18 18 0 0 0 7.41 9.31h-7.41V46.1zm39.26 7.65c0 6.29-2.22 16.94-19.83 16.94-7.55 0-16.36-3.55-16.87-12.28h10.44c1 3.92 4.14 5.25 7.85 5.25 5.84 0 8.51-4 8.43-9.47v-5h-.15c-2.29 4-6.88 5.92-11.47 5.92-11.47 0-16.35-8.73-16.35-19.24 0-9.92 5.7-19 16.43-19 5 0 8.88 1.7 11.39 6.15h.15v-5.04h10l-.02 35.77zm-23.26 4.23c.54 0 1.1.06 1.66.06a17.86 17.86 0 0 0 8.52-2.06 5.82 5.82 0 0 1-1.45 3.32 5.24 5.24 0 0 1-3.88 1.32c-3.8.04-4.59-1.57-4.85-2.64zm63-1.83h-10.55V34.54c0-6.29-1.85-9.4-6.73-9.4-5.7 0-8.14 3.18-8.14 11V56.2H182.8V17.98h10v5.33h.22a13.65 13.65 0 0 1 11.7-6.37c11.17 0 14 6.29 14 15.77l.01 23.44zm41.94-16.58h-27.64c.3 6.66 3.55 9.7 9.4 9.7 4.22 0 7.62-2.59 8.29-5h9.25c-3 9-9.25 12.88-17.91 12.88-12.06 0-19.54-8.29-19.54-20.13 0-11.47 7.92-20.21 19.54-20.21 13.02.08 19.31 11.04 18.57 22.8l.04-.04zm-12.54 3l-.26.93c-.27.94-2.41 2.77-5.4 2.77s-5-.71-5.92-3.7h11.58zm41.6-15.54a19.37 19.37 0 0 0-3.78-.37c-7.69 0-10.36 5.55-10.36 12.29v17.24h-10.5V17.98h10v7.1h.14a13.53 13.53 0 0 1 4.911-5.87 13.54 13.54 0 0 1 7.309-2.27 7.9 7.9 0 0 1 2.29.37l-.01 9.72zm20.25 30.2c-8.88 0-17.54-3.12-18-13.26h10c.07 4.59 3.92 6.22 8.07 6.22 3 0 6.88-1.18 6.88-4.88 0-3.18-4.37-4.29-11.92-5.92-6.06-1.33-12.13-3.48-12.13-10.21 0-9.77 8.43-12.29 16.65-12.29s16.06 2.82 16.87 12.21h-10c-.3-4.07-3.4-5.18-7.18-5.18-2.37 0-5.84.45-5.84 3.56 0 3.77 5.92 4.29 11.91 5.69s12.14 3.63 12.14 10.73c.04 10.08-8.7 13.33-17.43 13.33h-.02zm-5-14.78c3.2.69 8.35 1.85 9 2.86 0 1.86-3.73 1.88-3.88 1.88-5 0-5.06-2.46-5.07-3.27l-.05-1.47zm8.5-12.76l-.42-.08c-2.29-.49-6.13-1.3-6.64-2.13v-.08a5.51 5.51 0 0 1 2.84-.48c4 0 4.11 1.33 4.19 2.4l.03.37zm-153.45-4.88c-5.92 0-8.51 5.18-8.51 10.88 0 5.48 2.07 11.47 8.51 11.47 6 0 8.95-5.11 8.95-10.58 0-6.22-2.14-11.77-8.95-11.77zm0 19.35c-4.8 0-5.51-5.31-5.51-8.47 0-1.85.39-7.88 5.51-7.88 1.63 0 5.95 0 5.95 8.77 0 3.5-1.56 7.58-5.95 7.58zm81.7-19.35c-6.66 0-8.58 5.18-8.73 8.14h17.09c-.93-5.33-3.22-8.14-8.36-8.14zm-4.72 5.14a5.32 5.32 0 0 1 4.72-2.14c2 0 3.35.4 4.31 2.14h-9.03z"/></svg>
